<mxfile host="app.diagrams.net" modified="2024-03-16T17:26:45.818Z" agent="Mozilla/5.0 (Windows NT 10.0; Win64; x64) AppleWebKit/537.36 (KHTML, like Gecko) Chrome/122.0.0.0 Safari/537.36" etag="ev9W4rWy5-1liOEQUgnz" version="21.5.2" type="device">
  <diagram name="Page-1" id="gi3XQx_MNv8KowUi3BZB">
    <mxGraphModel dx="1483" dy="1510" grid="1" gridSize="10" guides="1" tooltips="1" connect="1" arrows="1" fold="1" page="1" pageScale="1" pageWidth="1169" pageHeight="827" math="0" shadow="0">
      <root>
        <mxCell id="0" />
        <mxCell id="1" parent="0" />
        <mxCell id="k3yfLC9RwLweDPWpdk3I-2" value="Seller" style="shape=umlActor;verticalLabelPosition=bottom;verticalAlign=top;html=1;" vertex="1" parent="1">
          <mxGeometry x="290" y="145" width="30" height="60" as="geometry" />
        </mxCell>
        <mxCell id="k3yfLC9RwLweDPWpdk3I-4" value="" style="swimlane;startSize=0;" vertex="1" parent="1">
          <mxGeometry x="340" y="-80" width="420" height="680" as="geometry">
            <mxRectangle x="340" y="20" width="50" height="40" as="alternateBounds" />
          </mxGeometry>
        </mxCell>
        <mxCell id="k3yfLC9RwLweDPWpdk3I-3" value="Authentication" style="ellipse;whiteSpace=wrap;html=1;" vertex="1" parent="k3yfLC9RwLweDPWpdk3I-4">
          <mxGeometry x="42.5" y="115" width="105" height="70" as="geometry" />
        </mxCell>
        <mxCell id="k3yfLC9RwLweDPWpdk3I-18" value="Authentication" style="ellipse;whiteSpace=wrap;html=1;" vertex="1" parent="k3yfLC9RwLweDPWpdk3I-4">
          <mxGeometry x="285" y="540" width="120" height="50" as="geometry" />
        </mxCell>
        <mxCell id="k3yfLC9RwLweDPWpdk3I-27" value="Item description" style="ellipse;whiteSpace=wrap;html=1;" vertex="1" parent="k3yfLC9RwLweDPWpdk3I-4">
          <mxGeometry x="140" y="360" width="120" height="50" as="geometry" />
        </mxCell>
        <mxCell id="k3yfLC9RwLweDPWpdk3I-19" value="Contact seller" style="ellipse;whiteSpace=wrap;html=1;" vertex="1" parent="k3yfLC9RwLweDPWpdk3I-4">
          <mxGeometry x="45" y="520" width="120" height="50" as="geometry" />
        </mxCell>
        <mxCell id="k3yfLC9RwLweDPWpdk3I-26" value="&amp;lt;&amp;lt;include&amp;gt;&amp;gt;" style="html=1;verticalAlign=bottom;labelBackgroundColor=none;endArrow=open;endFill=0;dashed=1;rounded=0;exitX=0;exitY=0.24;exitDx=0;exitDy=0;exitPerimeter=0;" edge="1" parent="k3yfLC9RwLweDPWpdk3I-4" source="k3yfLC9RwLweDPWpdk3I-18" target="k3yfLC9RwLweDPWpdk3I-19">
          <mxGeometry width="160" relative="1" as="geometry">
            <mxPoint x="765" y="396" as="sourcePoint" />
            <mxPoint x="675" y="355" as="targetPoint" />
          </mxGeometry>
        </mxCell>
        <mxCell id="k3yfLC9RwLweDPWpdk3I-15" value="Search items" style="ellipse;whiteSpace=wrap;html=1;" vertex="1" parent="k3yfLC9RwLweDPWpdk3I-4">
          <mxGeometry x="55" y="440" width="120" height="50" as="geometry" />
        </mxCell>
        <mxCell id="k3yfLC9RwLweDPWpdk3I-34" value="" style="html=1;verticalAlign=bottom;labelBackgroundColor=none;endArrow=open;endFill=0;dashed=1;rounded=0;entryX=0.358;entryY=0.98;entryDx=0;entryDy=0;entryPerimeter=0;" edge="1" parent="k3yfLC9RwLweDPWpdk3I-4" source="k3yfLC9RwLweDPWpdk3I-15" target="k3yfLC9RwLweDPWpdk3I-27">
          <mxGeometry x="0.0155" width="160" relative="1" as="geometry">
            <mxPoint x="605" y="235" as="sourcePoint" />
            <mxPoint x="765" y="235" as="targetPoint" />
            <mxPoint as="offset" />
          </mxGeometry>
        </mxCell>
        <mxCell id="k3yfLC9RwLweDPWpdk3I-11" value="Add to shopping cart" style="ellipse;whiteSpace=wrap;html=1;" vertex="1" parent="k3yfLC9RwLweDPWpdk3I-4">
          <mxGeometry x="55" y="590" width="120" height="50" as="geometry" />
        </mxCell>
        <mxCell id="k3yfLC9RwLweDPWpdk3I-20" value="&amp;lt;&amp;lt;include&amp;gt;&amp;gt;" style="html=1;verticalAlign=bottom;labelBackgroundColor=none;endArrow=open;endFill=0;dashed=1;rounded=0;exitX=0;exitY=1;exitDx=0;exitDy=0;entryX=1;entryY=0.5;entryDx=0;entryDy=0;" edge="1" parent="k3yfLC9RwLweDPWpdk3I-4" source="k3yfLC9RwLweDPWpdk3I-18" target="k3yfLC9RwLweDPWpdk3I-11">
          <mxGeometry width="160" relative="1" as="geometry">
            <mxPoint x="665.679981562804" y="483.7909742841665" as="sourcePoint" />
            <mxPoint x="145" y="660" as="targetPoint" />
          </mxGeometry>
        </mxCell>
        <mxCell id="k3yfLC9RwLweDPWpdk3I-17" value="Browse categories" style="ellipse;whiteSpace=wrap;html=1;" vertex="1" parent="k3yfLC9RwLweDPWpdk3I-4">
          <mxGeometry x="285" y="459" width="120" height="50" as="geometry" />
        </mxCell>
        <mxCell id="k3yfLC9RwLweDPWpdk3I-29" value="" style="html=1;verticalAlign=bottom;labelBackgroundColor=none;endArrow=open;endFill=0;dashed=1;rounded=0;entryX=1;entryY=1;entryDx=0;entryDy=0;" edge="1" parent="k3yfLC9RwLweDPWpdk3I-4" source="k3yfLC9RwLweDPWpdk3I-17" target="k3yfLC9RwLweDPWpdk3I-27">
          <mxGeometry width="160" relative="1" as="geometry">
            <mxPoint x="735" y="440" as="sourcePoint" />
            <mxPoint x="676" y="453" as="targetPoint" />
            <Array as="points" />
          </mxGeometry>
        </mxCell>
        <mxCell id="k3yfLC9RwLweDPWpdk3I-16" value="Add to favourites" style="ellipse;whiteSpace=wrap;html=1;" vertex="1" parent="k3yfLC9RwLweDPWpdk3I-4">
          <mxGeometry x="155" y="473.5" width="120" height="50" as="geometry" />
        </mxCell>
        <mxCell id="k3yfLC9RwLweDPWpdk3I-39" value="Contact seller" style="ellipse;whiteSpace=wrap;html=1;" vertex="1" parent="k3yfLC9RwLweDPWpdk3I-4">
          <mxGeometry x="155" y="620" width="120" height="50" as="geometry" />
        </mxCell>
        <mxCell id="k3yfLC9RwLweDPWpdk3I-40" value="&amp;lt;&amp;lt;extend&amp;gt;&amp;gt;" style="html=1;verticalAlign=bottom;labelBackgroundColor=none;endArrow=open;endFill=0;dashed=1;rounded=0;entryX=0.967;entryY=0.32;entryDx=0;entryDy=0;entryPerimeter=0;exitX=0.558;exitY=1.02;exitDx=0;exitDy=0;exitPerimeter=0;" edge="1" parent="k3yfLC9RwLweDPWpdk3I-4" source="k3yfLC9RwLweDPWpdk3I-18" target="k3yfLC9RwLweDPWpdk3I-39">
          <mxGeometry width="160" relative="1" as="geometry">
            <mxPoint x="320" y="600" as="sourcePoint" />
            <mxPoint x="185" y="625" as="targetPoint" />
          </mxGeometry>
        </mxCell>
        <mxCell id="k3yfLC9RwLweDPWpdk3I-42" value="View items" style="ellipse;whiteSpace=wrap;html=1;" vertex="1" parent="k3yfLC9RwLweDPWpdk3I-4">
          <mxGeometry x="285" y="350" width="120" height="50" as="geometry" />
        </mxCell>
        <mxCell id="k3yfLC9RwLweDPWpdk3I-43" value="" style="html=1;verticalAlign=bottom;labelBackgroundColor=none;endArrow=open;endFill=0;dashed=1;rounded=0;exitX=0;exitY=0.5;exitDx=0;exitDy=0;" edge="1" parent="k3yfLC9RwLweDPWpdk3I-4" source="k3yfLC9RwLweDPWpdk3I-42" target="k3yfLC9RwLweDPWpdk3I-27">
          <mxGeometry x="-0.1263" y="-8" width="160" relative="1" as="geometry">
            <mxPoint x="440" y="454" as="sourcePoint" />
            <mxPoint x="499" y="410" as="targetPoint" />
            <mxPoint as="offset" />
            <Array as="points">
              <mxPoint x="270" y="380" />
            </Array>
          </mxGeometry>
        </mxCell>
        <mxCell id="k3yfLC9RwLweDPWpdk3I-45" value="List item for sale" style="ellipse;whiteSpace=wrap;html=1;" vertex="1" parent="k3yfLC9RwLweDPWpdk3I-4">
          <mxGeometry x="205" y="80" width="105" height="70" as="geometry" />
        </mxCell>
        <mxCell id="k3yfLC9RwLweDPWpdk3I-47" value="Manage inventory" style="ellipse;whiteSpace=wrap;html=1;" vertex="1" parent="k3yfLC9RwLweDPWpdk3I-4">
          <mxGeometry x="280" y="130" width="105" height="70" as="geometry" />
        </mxCell>
        <mxCell id="k3yfLC9RwLweDPWpdk3I-44" value="view order history" style="ellipse;whiteSpace=wrap;html=1;" vertex="1" parent="k3yfLC9RwLweDPWpdk3I-4">
          <mxGeometry x="230" y="210" width="105" height="70" as="geometry" />
        </mxCell>
        <mxCell id="k3yfLC9RwLweDPWpdk3I-46" value="Manage profile" style="ellipse;whiteSpace=wrap;html=1;" vertex="1" parent="k3yfLC9RwLweDPWpdk3I-4">
          <mxGeometry x="110" y="260" width="105" height="70" as="geometry" />
        </mxCell>
        <mxCell id="k3yfLC9RwLweDPWpdk3I-48" value="&amp;lt;&amp;lt;extend&amp;gt;&amp;gt;" style="html=1;verticalAlign=bottom;labelBackgroundColor=none;endArrow=open;endFill=0;dashed=1;rounded=0;entryX=0.038;entryY=0.729;entryDx=0;entryDy=0;entryPerimeter=0;" edge="1" parent="k3yfLC9RwLweDPWpdk3I-4" source="k3yfLC9RwLweDPWpdk3I-3" target="k3yfLC9RwLweDPWpdk3I-45">
          <mxGeometry width="160" relative="1" as="geometry">
            <mxPoint x="150" y="140" as="sourcePoint" />
            <mxPoint x="310" y="140" as="targetPoint" />
          </mxGeometry>
        </mxCell>
        <mxCell id="k3yfLC9RwLweDPWpdk3I-50" value="&amp;lt;&amp;lt;extend&amp;gt;&amp;gt;" style="html=1;verticalAlign=bottom;labelBackgroundColor=none;endArrow=open;endFill=0;dashed=1;rounded=0;exitX=0.738;exitY=0.929;exitDx=0;exitDy=0;exitPerimeter=0;" edge="1" parent="k3yfLC9RwLweDPWpdk3I-4" source="k3yfLC9RwLweDPWpdk3I-3" target="k3yfLC9RwLweDPWpdk3I-46">
          <mxGeometry width="160" relative="1" as="geometry">
            <mxPoint x="156" y="152" as="sourcePoint" />
            <mxPoint x="219" y="141" as="targetPoint" />
          </mxGeometry>
        </mxCell>
        <mxCell id="k3yfLC9RwLweDPWpdk3I-51" value="&amp;lt;&amp;lt;include&amp;gt;&amp;gt;" style="html=1;verticalAlign=bottom;labelBackgroundColor=none;endArrow=open;endFill=0;dashed=1;rounded=0;entryX=0.971;entryY=0.686;entryDx=0;entryDy=0;entryPerimeter=0;exitX=1;exitY=0;exitDx=0;exitDy=0;" edge="1" parent="k3yfLC9RwLweDPWpdk3I-4" source="k3yfLC9RwLweDPWpdk3I-18" target="k3yfLC9RwLweDPWpdk3I-44">
          <mxGeometry width="160" relative="1" as="geometry">
            <mxPoint x="379" y="464" as="sourcePoint" />
            <mxPoint x="388.21000000000004" y="331" as="targetPoint" />
            <Array as="points">
              <mxPoint x="430" y="547" />
              <mxPoint x="430" y="464" />
              <mxPoint x="430" y="260" />
              <mxPoint x="370" y="258" />
            </Array>
          </mxGeometry>
        </mxCell>
        <mxCell id="k3yfLC9RwLweDPWpdk3I-52" value="&amp;lt;&amp;lt;extend&amp;gt;&amp;gt;" style="html=1;verticalAlign=bottom;labelBackgroundColor=none;endArrow=open;endFill=0;dashed=1;rounded=0;entryX=0;entryY=0.5;entryDx=0;entryDy=0;exitX=0.948;exitY=0.771;exitDx=0;exitDy=0;exitPerimeter=0;" edge="1" parent="k3yfLC9RwLweDPWpdk3I-4" source="k3yfLC9RwLweDPWpdk3I-3" target="k3yfLC9RwLweDPWpdk3I-47">
          <mxGeometry width="160" relative="1" as="geometry">
            <mxPoint x="155.01999999999998" y="192.01999999999998" as="sourcePoint" />
            <mxPoint x="285.0049999999999" y="160" as="targetPoint" />
          </mxGeometry>
        </mxCell>
        <mxCell id="k3yfLC9RwLweDPWpdk3I-53" value="&amp;lt;&amp;lt;include&amp;gt;&amp;gt;" style="html=1;verticalAlign=bottom;labelBackgroundColor=none;endArrow=open;endFill=0;dashed=1;rounded=0;exitX=1;exitY=0.5;exitDx=0;exitDy=0;entryX=1;entryY=0.5;entryDx=0;entryDy=0;" edge="1" parent="k3yfLC9RwLweDPWpdk3I-4" source="k3yfLC9RwLweDPWpdk3I-18" target="k3yfLC9RwLweDPWpdk3I-46">
          <mxGeometry width="160" relative="1" as="geometry">
            <mxPoint x="397" y="557" as="sourcePoint" />
            <mxPoint x="342" y="268" as="targetPoint" />
            <Array as="points">
              <mxPoint x="440" y="557" />
              <mxPoint x="440" y="474" />
              <mxPoint x="440" y="380" />
              <mxPoint x="440" y="320" />
              <mxPoint x="380" y="320" />
            </Array>
          </mxGeometry>
        </mxCell>
        <mxCell id="k3yfLC9RwLweDPWpdk3I-55" value="&lt;b&gt;&lt;font style=&quot;font-size: 14px;&quot;&gt;COMRADE E-MARKETPLACE&lt;/font&gt;&lt;/b&gt;" style="text;strokeColor=none;align=center;fillColor=none;html=1;verticalAlign=middle;whiteSpace=wrap;rounded=0;" vertex="1" parent="k3yfLC9RwLweDPWpdk3I-4">
          <mxGeometry x="110" y="10" width="200" height="50" as="geometry" />
        </mxCell>
        <mxCell id="k3yfLC9RwLweDPWpdk3I-7" value="" style="endArrow=none;html=1;rounded=0;exitX=1;exitY=0.3333333333333333;exitDx=0;exitDy=0;exitPerimeter=0;" edge="1" parent="1" source="k3yfLC9RwLweDPWpdk3I-2" target="k3yfLC9RwLweDPWpdk3I-3">
          <mxGeometry width="50" height="50" relative="1" as="geometry">
            <mxPoint x="330" y="250" as="sourcePoint" />
            <mxPoint x="600" y="340" as="targetPoint" />
          </mxGeometry>
        </mxCell>
        <mxCell id="k3yfLC9RwLweDPWpdk3I-8" value="Buyer" style="shape=umlActor;verticalLabelPosition=bottom;verticalAlign=top;html=1;outlineConnect=0;" vertex="1" parent="1">
          <mxGeometry x="845" y="470" width="30" height="60" as="geometry" />
        </mxCell>
        <mxCell id="k3yfLC9RwLweDPWpdk3I-23" value="" style="endArrow=none;html=1;rounded=0;entryX=0.5;entryY=0.5;entryDx=0;entryDy=0;entryPerimeter=0;exitX=1;exitY=0.5;exitDx=0;exitDy=0;" edge="1" parent="1" source="k3yfLC9RwLweDPWpdk3I-17" target="k3yfLC9RwLweDPWpdk3I-8">
          <mxGeometry width="50" height="50" relative="1" as="geometry">
            <mxPoint x="615" y="410" as="sourcePoint" />
            <mxPoint x="665" y="360" as="targetPoint" />
          </mxGeometry>
        </mxCell>
        <mxCell id="k3yfLC9RwLweDPWpdk3I-24" value="" style="endArrow=none;html=1;rounded=0;entryX=1;entryY=0.5;entryDx=0;entryDy=0;exitX=0.5;exitY=0.5;exitDx=0;exitDy=0;exitPerimeter=0;" edge="1" parent="1" source="k3yfLC9RwLweDPWpdk3I-8" target="k3yfLC9RwLweDPWpdk3I-18">
          <mxGeometry width="50" height="50" relative="1" as="geometry">
            <mxPoint x="850" y="500" as="sourcePoint" />
            <mxPoint x="665" y="360" as="targetPoint" />
          </mxGeometry>
        </mxCell>
        <mxCell id="k3yfLC9RwLweDPWpdk3I-38" value="" style="endArrow=none;html=1;rounded=0;exitX=0.5;exitY=0.5;exitDx=0;exitDy=0;exitPerimeter=0;" edge="1" parent="1" source="k3yfLC9RwLweDPWpdk3I-8" target="k3yfLC9RwLweDPWpdk3I-16">
          <mxGeometry width="50" height="50" relative="1" as="geometry">
            <mxPoint x="590" y="540" as="sourcePoint" />
            <mxPoint x="640" y="490" as="targetPoint" />
          </mxGeometry>
        </mxCell>
        <mxCell id="k3yfLC9RwLweDPWpdk3I-54" value="" style="endArrow=none;html=1;rounded=0;exitX=0.5;exitY=0.5;exitDx=0;exitDy=0;exitPerimeter=0;entryX=0.358;entryY=-0.02;entryDx=0;entryDy=0;entryPerimeter=0;" edge="1" parent="1" source="k3yfLC9RwLweDPWpdk3I-2" target="k3yfLC9RwLweDPWpdk3I-17">
          <mxGeometry width="50" height="50" relative="1" as="geometry">
            <mxPoint x="330" y="175" as="sourcePoint" />
            <mxPoint x="397" y="155" as="targetPoint" />
          </mxGeometry>
        </mxCell>
      </root>
    </mxGraphModel>
  </diagram>
</mxfile>
